<svg width="64" height="64" viewBox="0 0 64 64" fill="none" xmlns="http://www.w3.org/2000/svg">
<rect width="64" height="64" rx="16" fill="url(#paint0_radial)"/>
<path d="M0 0H16C24.8366 0 32 7.16344 32 16C32 24.8366 24.8366 32 16 32C7.16344 32 0 24.8366 0 16V0Z" transform="translate(16 16)" fill="url(#paint1_radial)"/>
<path d="M0 0H16C24.8366 0 32 7.16344 32 16C32 24.8366 24.8366 32 16 32C7.16344 32 0 24.8366 0 16V0Z" transform="translate(16 16)" fill="url(#paint2_linear)"/>
<defs>
<radialGradient id="paint0_radial" cx="0.5" cy="0.5" r="0.5" gradientUnits="userSpaceOnUse" gradientTransform="translate(128 128) scale(128) rotate(180)">
<stop offset="0.248619" stop-color="#29C3EF"/>
<stop offset="1" stop-color="#3270F8"/>
</radialGradient>
<radialGradient id="paint1_radial" cx="0.5" cy="0.5" r="0.5" gradientUnits="userSpaceOnUse" gradientTransform="translate(67.5 67.5) scale(71) rotate(180)">
<stop offset="0.171271" stop-color="#27D8ED"/>
<stop offset="1" stop-color="#364DFC"/>
</radialGradient>
<linearGradient id="paint2_linear" x2="1" gradientUnits="userSpaceOnUse" gradientTransform="translate(32) scale(32) rotate(90)">
<stop stop-color="white"/>
<stop offset="1" stop-color="white" stop-opacity="0.75"/>
</linearGradient>
</defs>
</svg>
