<svg width="240" height="64" viewBox="0 0 240 64" fill="none" xmlns="http://www.w3.org/2000/svg">
<path d="M0 0H32C49.6731 0 64 14.3269 64 32C64 49.6731 49.6731 64 32 64C14.3269 64 0 49.6731 0 32V0Z" fill="url(#paint0_radial)"/>
<path d="M15.1136 40.6278C24.1818 40.6278 29.4915 36.5312 29.4915 28.7756C29.4915 24.679 27.4034 21.0795 22.7102 19.9659C26.608 18.2955 28.4176 14.8551 28.4176 11.1562C28.4176 4.19602 22.9886 0 13.8807 0H0V40.6278H15.1136ZM7.67614 6.50284H13.8807C18.5739 6.50284 20.7614 8.51137 20.7614 11.8722C20.7614 15.0142 18.4943 17.1023 14.517 17.2813L7.67614 17.3011V6.50284ZM21.9148 28.6761C21.9148 32.1562 19.3693 34.1847 15.1136 34.1847H7.67614V22.9688H15.4119C19.7074 22.9688 21.9148 25.017 21.9148 28.6761Z" transform="translate(99.321 11.2727)" fill="#3270F8"/>
<path d="M48.3288 41.304C54.1953 41.304 58.4709 38.5597 60.3004 35.2585L55.468 31.3608C53.8374 33.7869 51.6499 35.0795 48.647 35.0795C44.6499 35.0795 41.7067 32.733 40.9908 28.0597H61.076V24.8778C61.076 15.054 55.5078 9.78409 47.5732 9.78409C38.5646 9.78409 33.6129 16.5653 33.6129 25.7926C33.6129 34.5426 38.9226 41.304 48.3288 41.304ZM47.5732 15.9688C51.7493 15.9688 53.9368 19.2898 53.9368 22.8097H41.0504C41.6868 18.5938 43.8544 15.9688 47.5732 15.9688Z" transform="translate(99.321 11.2727)" fill="#3270F8"/>
<path d="M79.6648 41.304C85.5312 41.304 89.8068 38.5597 91.6364 35.2585L86.804 31.3608C85.1733 33.7869 82.9858 35.0795 79.983 35.0795C75.9858 35.0795 73.0426 32.733 72.3267 28.0597H92.4119V24.8778C92.4119 15.054 86.8438 9.78409 78.9091 9.78409C69.9006 9.78409 64.9489 16.5653 64.9489 25.7926C64.9489 34.5426 70.2585 41.304 79.6648 41.304ZM78.9091 15.9688C83.0852 15.9688 85.2727 19.2898 85.2727 22.8097H72.3864C73.0227 18.5938 75.1903 15.9688 78.9091 15.9688Z" transform="translate(99.321 11.2727)" fill="#3270F8"/>
<path d="M97.3984 52.1818H104.995V38.6591C106.586 40.2699 108.813 41.304 111.915 41.304C119.731 41.304 125.2 34.821 125.2 25.5142C125.2 16.267 119.731 9.78409 111.955 9.78409C108.933 9.78409 106.745 10.7983 105.174 12.3892H104.796L104.737 10.1818H97.3984V52.1818ZM104.915 30.0881C104.577 28.6563 104.438 26.5483 104.418 25.4347C104.438 24.4006 104.558 22.7699 104.896 21.3381C105.433 19.3097 107.222 15.9688 111.2 15.9688C115.654 15.9688 117.921 19.9858 117.921 25.5142C117.921 31.142 115.654 35.0795 111.18 35.0795C107.62 35.0795 105.512 32.554 104.915 30.0881Z" transform="translate(99.321 11.2727)" fill="#3270F8"/>
<defs>
<radialGradient id="paint0_radial" cx="0.5" cy="0.5" r="0.5" gradientUnits="userSpaceOnUse" gradientTransform="translate(135 135) scale(142) rotate(180)">
<stop offset="0.171271" stop-color="#29C3EF"/>
<stop offset="1" stop-color="#3270F8"/>
</radialGradient>
</defs>
</svg>
