<svg width="240" height="64" fill="none" xmlns="http://www.w3.org/2000/svg"><path d="M0 0h32c17.673 0 32 14.327 32 32 0 17.673-14.327 32-32 32C14.327 64 0 49.673 0 32V0z" fill="url(#paint0_radial)"/><path d="M114.435 51.9c9.068 0 14.377-4.096 14.377-11.852 0-4.096-2.088-7.696-6.78-8.81 3.897-1.67 5.707-5.11 5.707-8.81 0-6.96-5.43-11.155-14.537-11.155H99.32V51.9h15.114zm-7.438-34.124h6.205c4.693 0 6.88 2.008 6.88 5.369 0 3.142-2.267 5.23-6.244 5.409l-6.84.02V17.776zm14.239 22.173c0 3.48-2.546 5.508-6.801 5.508h-7.438V34.242h7.736c4.295 0 6.503 2.048 6.503 5.707zM147.65 52.577c5.866 0 10.142-2.745 11.971-6.046l-4.832-3.897c-1.63 2.426-3.818 3.718-6.821 3.718-3.997 0-6.94-2.346-7.656-7.02h20.085V36.15c0-9.823-5.568-15.093-13.503-15.093-9.008 0-13.96 6.781-13.96 16.008 0 8.75 5.31 15.512 14.716 15.512zm-.756-25.335c4.176 0 6.364 3.32 6.364 6.84H140.37c.637-4.215 2.804-6.84 6.523-6.84zM178.986 52.577c5.866 0 10.142-2.745 11.971-6.046l-4.832-3.897c-1.63 2.426-3.818 3.718-6.821 3.718-3.997 0-6.94-2.346-7.656-7.02h20.085V36.15c0-9.823-5.568-15.093-13.503-15.093-9.008 0-13.96 6.781-13.96 16.008 0 8.75 5.31 15.512 14.716 15.512zm-.756-25.335c4.176 0 6.364 3.32 6.364 6.84h-12.887c.637-4.215 2.804-6.84 6.523-6.84zM196.72 63.455h7.596V49.931c1.591 1.61 3.818 2.645 6.92 2.645 7.816 0 13.285-6.483 13.285-15.79 0-9.247-5.469-15.73-13.245-15.73-3.022 0-5.21 1.014-6.781 2.605h-.378l-.059-2.207h-7.339v42zm7.516-22.094c-.338-1.432-.477-3.54-.497-4.654.02-1.034.14-2.664.478-4.096.537-2.029 2.326-5.37 6.304-5.37 4.454 0 6.721 4.017 6.721 9.546 0 5.628-2.267 9.565-6.741 9.565-3.56 0-5.668-2.525-6.265-4.991z" fill="#3270F8"/><defs><radialGradient id="paint0_radial" cx=".5" cy=".5" r=".5" gradientUnits="userSpaceOnUse" gradientTransform="matrix(-142 0 0 -142 135 135)"><stop offset=".171" stop-color="#29C3EF"/><stop offset="1" stop-color="#3270F8"/></radialGradient></defs></svg>